<svg xmlns="http://www.w3.org/2000/svg" viewBox="0 0 63 38.82"><defs><style>.cls-1{font-size:18.92px;font-family:Bauhaus93, "Bauhaus 93";}.cls-1,.cls-2{fill:#fff;}</style></defs><g id="Layer_2" data-name="Layer 2"><g id="Layer_1-2" data-name="Layer 1"><text class="cls-1" transform="translate(13.5 34.09)">NCP</text><path class="cls-2" d="M54.77,35.5H52.58A1.47,1.47,0,0,1,51.11,34V22.56a19.92,19.92,0,0,0-6-14.12A18.82,18.82,0,0,0,31.53,3h-.06A18.86,18.86,0,0,0,17.84,8.44a19.92,19.92,0,0,0-5.95,14.12V34a1.47,1.47,0,0,1-1.47,1.47H8.23a8.23,8.23,0,1,1,0-16.45h1A23,23,0,0,1,15.78,6.34,21.78,21.78,0,0,1,31.5,0,21.72,21.72,0,0,1,47.22,6.34a23,23,0,0,1,6.56,12.71h1a8.23,8.23,0,1,1,0,16.45Zm-.71-2.94h.71a5.29,5.29,0,0,0,0-10.57h-.72c0,.19,0,.38,0,.57ZM8.23,22a5.29,5.29,0,0,0,0,10.57h.71v-10c0-.19,0-.38,0-.57Z"/></g></g></svg>